<svg xmlns="http://www.w3.org/2000/svg" xmlns:xlink="http://www.w3.org/1999/xlink" width="6865.065" height="8190.459"><symbol id="icon-short_arrow_right" viewBox="0 0 1024 1024"><title>short_arrow_right</title><path d="M1002.667 554.837H21.334c-11.776 0-21.333-9.557-21.333-21.333s9.557-21.333 21.333-21.333h981.333c11.776 0 21.333 9.557 21.333 21.333s-9.557 21.333-21.333 21.333z"/><path d="M469.333 1024.171c-5.931 0-11.776-2.475-16-7.253-7.765-8.832-6.912-22.315 1.92-30.08l515.115-453.333L455.253 80.172c-8.875-7.765-9.728-21.248-1.92-30.08 7.808-8.875 21.333-9.728 30.123-1.92l533.333 469.333c4.565 4.053 7.211 9.856 7.211 16s-2.645 11.947-7.253 16l-533.333 469.333a21.113 21.113 0 0 1-14.08 5.333h-.001z"/></symbol><symbol id="icon-short_arrow_left" viewBox="0 0 1024 1024"><title>short_arrow_left</title><path d="M21.334 511.996h981.333c11.776 0 21.333 9.557 21.333 21.333s-9.557 21.333-21.333 21.333H21.334c-11.776 0-21.333-9.557-21.333-21.333s9.557-21.333 21.333-21.333z"/><path d="M554.668 42.662c5.931 0 11.776 2.475 16 7.253 7.765 8.832 6.912 22.315-1.92 30.08L53.633 533.328l515.115 453.333c8.875 7.765 9.728 21.248 1.92 30.08-7.808 8.875-21.333 9.728-30.123 1.92L7.212 549.328c-4.565-4.053-7.211-9.856-7.211-16s2.645-11.947 7.253-16L540.587 47.995a21.113 21.113 0 0 1 14.08-5.333h.001z"/></symbol><symbol id="icon-short_arrow_down" viewBox="0 0 1024 1024"><title>short_arrow_down</title><path d="M490.665 1002.666V21.333C490.665 9.557 500.222 0 511.998 0c11.776 0 21.333 9.557 21.333 21.333v981.333c0 11.776-9.557 21.333-21.333 21.333-11.776 0-21.333-9.557-21.333-21.333z"/><path d="M21.331 469.332c0-5.931 2.475-11.776 7.253-16 8.832-7.765 22.315-6.912 30.08 1.92l453.333 515.115L965.33 455.253c7.765-8.875 21.248-9.728 30.08-1.92 8.875 7.808 9.728 21.333 1.92 30.123l-469.333 533.333a21.389 21.389 0 0 1-16 7.211 21.278 21.278 0 0 1-16-7.253L26.664 483.414a21.113 21.113 0 0 1-5.333-14.08v-.002z"/></symbol><symbol id="icon-long_arrow_right" viewBox="0 0 612 792"><title>long_arrow_right</title><path d="M609.396 398.615H2.605a2.605 2.605 0 0 1 0-5.209h606.791a2.605 2.605 0 0 1 0 5.209z"/><path id="long-arrow-right-top" d="M605.451 396.011H612c0-.75-.323-1.459-.881-1.954l-65.123-57.309a2.602 2.602 0 0 0-3.678.234 2.594 2.594 0 0 0 .234 3.673l62.899 55.356z"/><path id="long-arrow-right-bottom" d="M605.439 396l.012.011-62.898 55.354a2.603 2.603 0 0 0-.234 3.673 2.597 2.597 0 0 0 3.673.236l65.123-57.309a2.6 2.6 0 0 0 .886-1.954L612 396h-6.561z"/></symbol><symbol id="icon-long_arrow_right_old" viewBox="0 0 5012.03 981.167"><title>long_arrow_right_old</title><path d="M4990.697 512.004H21.333C9.557 512.004 0 502.447 0 490.671s9.557-21.333 21.333-21.333h4969.364c11.776 0 21.333 9.557 21.333 21.333s-9.557 21.333-21.333 21.333z"/><path d="M4457.363 981.338c-5.931 0-11.776-2.475-16-7.253-7.765-8.832-6.912-22.315 1.92-30.08l515.115-453.333-515.115-453.333c-8.875-7.765-9.728-21.248-1.92-30.08 7.808-8.875 21.333-9.728 30.123-1.92l533.333 469.333c4.565 4.053 7.211 9.856 7.211 16s-2.645 11.947-7.253 16l-533.333 469.333a21.114 21.114 0 0 1-14.081 5.333z"/></symbol><symbol id="icon-long_arrow_left" viewBox="0 0 5012.03 981.167"><title>long_arrow_left</title><path d="M21.333 469.334h4969.364c11.776 0 21.333 9.557 21.333 21.333S5002.473 512 4990.697 512H21.333C9.557 512 0 502.443 0 490.667s9.557-21.333 21.333-21.333z"/><path d="M554.667 0c5.931 0 11.776 2.475 16 7.253 7.765 8.832 6.912 22.315-1.92 30.08L53.632 490.666l515.115 453.333c8.875 7.765 9.728 21.248 1.92 30.08-7.808 8.875-21.333 9.728-30.123 1.92L7.211 506.666a21.389 21.389 0 0 1-7.211-16 21.278 21.278 0 0 1 7.253-16L540.586 5.333A21.113 21.113 0 0 1 554.666 0h.001z"/></symbol><symbol id="icon-long_arrow_left-02" viewBox="0 0 6865.065 981.167"><title>long_arrow_left-02</title><path d="M21.333 469.334h6822.399c11.776 0 21.333 9.557 21.333 21.333S6855.508 512 6843.732 512H21.333C9.557 512 0 502.443 0 490.667s9.557-21.333 21.333-21.333z"/><path d="M554.667 0c5.931 0 11.776 2.475 16 7.253 7.765 8.832 6.912 22.315-1.92 30.08L53.632 490.666l515.115 453.333c8.875 7.765 9.728 21.248 1.92 30.08-7.808 8.875-21.333 9.728-30.123 1.92L7.211 506.666C2.646 502.613 0 496.81 0 490.666s2.645-11.947 7.253-16L540.586 5.333A21.113 21.113 0 0 1 554.666 0h.001z"/></symbol><symbol id="icon-logo" viewBox="0 0 342.958 342.958"><title>logo</title><path d="M313.211 171.479c0 78.277-63.456 141.732-141.732 141.732-38.043 0-72.582-14.991-98.04-39.384h98.04c56.525 0 102.348-45.823 102.348-102.348S228.004 69.131 171.479 69.131c-23.729 0-45.564 8.083-62.921 21.636l62.921-.003c44.578 0 80.715 36.137 80.715 80.715s-36.137 80.715-80.715 80.715l-116.508-.002a141.25 141.25 0 0 1-19.076-39.385h135.584c22.825 0 41.328-18.503 41.328-41.328 0-22.825-18.503-41.328-41.328-41.328H35.875a141.164 141.164 0 0 1 19.098-39.384c25.589-36.872 68.223-61.02 116.506-61.02 78.277 0 141.732 63.455 141.732 141.732zm-141.732-19.693H31.115a142.907 142.907 0 0 0-1.368 19.692c0 6.685.488 13.254 1.384 19.692h140.348c10.876 0 19.693-8.817 19.693-19.693 0-10.874-8.817-19.691-19.693-19.691z"/><path class="l-cog--transp js-l-cog-transp" d="M9.734 171.479c0-6.683.473-13.255 1.368-19.692H1.368A142.907 142.907 0 0 0 0 171.479c0 6.685.488 13.254 1.384 19.692h9.734a142.89 142.89 0 0 1-1.384-19.692z"/><path class="l-cog js-l-cog" d="M9.734 171.479c0-6.683.473-13.255 1.368-19.692H1.368A142.907 142.907 0 0 0 0 171.479c0 6.685.488 13.254 1.384 19.692h9.734a142.89 142.89 0 0 1-1.384-19.692z"/></symbol><symbol id="icon-close" viewBox="0 0 1024 1024"><title>close</title><title/><path d="M542.165 512L1017.77 36.437c8.32-8.32 8.32-21.845 0-30.165s-21.845-8.32-30.165 0L512 481.835 36.437 6.23c-8.32-8.32-21.845-8.32-30.165 0s-8.32 21.845 0 30.165L481.835 512 6.23 987.563c-8.32 8.32-8.32 21.845 0 30.165 4.181 4.181 9.643 6.272 15.104 6.272s10.923-2.091 15.104-6.229l475.563-475.605 475.563 475.605a21.426 21.426 0 0 0 30.208 0c8.32-8.32 8.32-21.845 0-30.165L542.167 512.001z"/></symbol><use xlink:href="#icon-close" width="1024" height="1024"/><use xlink:href="#icon-logo" y="1026" width="342.958" height="342.958"/><use xlink:href="#icon-long_arrow_left-02" y="1370.958" width="6865.065" height="981.167"/><use xlink:href="#icon-long_arrow_left" y="2354.125" width="5012.03" height="981.167"/><use xlink:href="#icon-long_arrow_right_old" y="3337.292" width="5012.03" height="981.167"/><use xlink:href="#icon-long_arrow_right" y="4320.459" width="612" height="792"/><use xlink:href="#icon-short_arrow_down" y="5114.459" width="1024" height="1024"/><use xlink:href="#icon-short_arrow_left" y="6140.459" width="1024" height="1024"/><use xlink:href="#icon-short_arrow_right" y="7166.459" width="1024" height="1024"/></svg>