<?xml version="1.0" encoding="utf-8"?>
<svg version="1.1" id="logo" class="logo js-spin" xmlns="http://www.w3.org/2000/svg" xmlns:xlink="http://www.w3.org/1999/xlink" x="0px" y="0px"
                     viewBox="0 0 342.958 342.958" enable-background="new 0 0 342.958 342.958" xml:space="preserve">
	<g>
		<path d="M313.211,171.479c0,78.277-63.456,141.732-141.732,141.732c-38.043,0-72.582-14.991-98.04-39.384l98.04,0
			c56.525,0,102.348-45.823,102.348-102.348S228.004,69.131,171.479,69.131c-23.729,0-45.564,8.083-62.921,21.636
			c0,0,62.864-0.003,62.921-0.003c44.578,0,80.715,36.137,80.715,80.715c0,44.578-36.137,80.715-80.715,80.715
			c-0.04,0-116.508-0.002-116.508-0.002c-8.276-11.924-14.75-25.186-19.076-39.385l135.584,0c22.825,0,41.328-18.503,41.328-41.328
			c0-22.825-18.503-41.328-41.328-41.328H35.875c4.323-14.203,10.821-27.458,19.098-39.384c25.589-36.872,68.223-61.02,116.506-61.02
			C249.756,29.747,313.211,93.202,313.211,171.479z M171.479,151.786c-0.003,0-140.364,0-140.364,0
			c-0.895,6.437-1.368,13.009-1.368,19.692c0,6.685,0.488,13.254,1.384,19.692c0,0,0,0,0,0c0,0,140.345,0,140.348,0
			c10.876,0,19.693-8.817,19.693-19.693C191.172,160.603,182.355,151.786,171.479,151.786z"/>
	</g>
</svg>
