<?xml version="1.0" encoding="utf-8"?>
<!-- Generator: Adobe Illustrator 19.2.0, SVG Export Plug-In . SVG Version: 6.00 Build 0)  -->
<svg version="1.1" id="Layer_1" xmlns="http://www.w3.org/2000/svg" xmlns:xlink="http://www.w3.org/1999/xlink" x="0px" y="0px"
	 viewBox="0 0 6865.065 981.167" enable-background="new 0 0 6865.065 981.167" xml:space="preserve">
<path d="M6843.732,512.004H21.333C9.557,512.004,0,502.447,0,490.671s9.557-21.333,21.333-21.333h6822.399
	c11.776,0,21.333,9.557,21.333,21.333S6855.508,512.004,6843.732,512.004z"/>
<path d="M6310.398,981.338c-5.931,0-11.776-2.475-16-7.253c-7.765-8.832-6.912-22.315,1.92-30.08l515.115-453.333L6296.318,37.339
	c-8.875-7.765-9.728-21.248-1.92-30.08c7.808-8.875,21.333-9.728,30.123-1.92l533.333,469.333c4.565,4.053,7.211,9.856,7.211,16
	s-2.645,11.947-7.253,16l-533.333,469.333C6320.426,979.589,6315.434,981.338,6310.398,981.338L6310.398,981.338z"/>
</svg>
